<?xml version="1.0" encoding="UTF-8"?>
<svg id="Vrstva_1" data-name="Vrstva 1" xmlns="http://www.w3.org/2000/svg" viewBox="0 0 32 32">
  <defs>
    <style>
      .cls-1 {
        fill: #2d3849;
      }

      .cls-2 {
        fill: #3b496c;
      }
    </style>
  </defs>
  <rect class="cls-1" x="-.07" width="32.38" height="32"/>
  <path class="cls-2" d="M9.07,26.27c.83-1.3,1.96-2.16,3.54-2.14,1.4.01,2.76.53,4.08.94,2.92.92,5.87,1.41,8.32-.83.59-.54-.29-1.43-.88-.88-2.53,2.31-5.7.9-8.53.07-1.32-.39-2.71-.7-4.08-.45-1.55.29-2.69,1.37-3.52,2.66-.43.68.65,1.31,1.08.63h0Z"/>
  <path class="cls-2" d="M9.07,10.27c.83-1.3,1.96-2.16,3.54-2.14,1.4.01,2.76.53,4.08.94,2.92.92,5.87,1.41,8.32-.83.59-.54-.29-1.43-.88-.88-2.53,2.31-5.7.9-8.53.07-1.32-.39-2.71-.7-4.08-.45-1.55.29-2.69,1.37-3.52,2.66-.43.68.65,1.31,1.08.63h0Z"/>
</svg>